<?xml version="1.0" encoding="iso-8859-1"?>
<!-- Generator: Adobe Illustrator 19.0.0, SVG Export Plug-In . SVG Version: 6.00 Build 0)  -->
<svg version="1.1" id="Layer_1" xmlns="http://www.w3.org/2000/svg" xmlns:xlink="http://www.w3.org/1999/xlink" x="0px" y="0px"
	 viewBox="0 0 512 512" style="enable-background:new 0 0 512 512;" xml:space="preserve">
<g>
	<g>
		<path d="M0,58.062v395.876h512V58.062H0z M380.041,438.103H15.835V73.897h364.206V438.103z M496.165,438.103H395.876V73.897
			h100.289V438.103z"/>
	</g>
</g>
<g>
	<g>
		<path d="M113.485,316.701c-27.649,0-50.144,22.495-50.144,50.144c0,9.99,2.947,19.657,8.527,27.961
			c9.347,13.891,24.904,22.183,41.618,22.183c27.649,0,50.144-22.495,50.144-50.144
			C163.629,339.196,141.134,316.701,113.485,316.701z M113.485,401.155c-11.434,0-22.08-5.677-28.477-15.184
			c-3.815-5.68-5.833-12.293-5.833-19.126c0-18.918,15.392-34.309,34.309-34.309s34.309,15.392,34.309,34.309
			C147.794,385.763,132.402,401.155,113.485,401.155z"/>
	</g>
</g>
<g>
	<g>
		<path d="M282.392,95.01c-27.649,0-50.144,22.495-50.144,50.144s22.495,50.144,50.144,50.144c27.649,0,50.144-22.495,50.144-50.144
			S310.041,95.01,282.392,95.01z M282.392,179.464c-18.918,0-34.309-15.392-34.309-34.309s15.392-34.309,34.309-34.309
			c18.918,0,34.309,15.392,34.309,34.309S301.309,179.464,282.392,179.464z"/>
	</g>
</g>
<g>
	<g>
		<path d="M282.392,205.856c-27.649,0-50.144,22.495-50.144,50.144s22.495,50.144,50.144,50.144
			c27.649,0,50.144-22.495,50.144-50.144S310.041,205.856,282.392,205.856z M282.392,290.309c-18.918,0-34.309-15.392-34.309-34.309
			s15.392-34.309,34.309-34.309c18.918,0,34.309,15.392,34.309,34.309S301.309,290.309,282.392,290.309z"/>
	</g>
</g>
<g>
	<g>
		<path d="M113.485,205.856c-27.649,0-50.144,22.495-50.144,50.144s22.495,50.144,50.144,50.144s50.144-22.495,50.144-50.144
			S141.134,205.856,113.485,205.856z M113.485,290.309c-18.918,0-34.309-15.392-34.309-34.309s15.392-34.309,34.309-34.309
			s34.309,15.392,34.309,34.309S132.402,290.309,113.485,290.309z"/>
	</g>
</g>
<g>
	<g>
		<path d="M282.392,316.701c-27.649,0-50.144,22.495-50.144,50.144c0,27.649,22.495,50.144,50.144,50.144
			c27.649,0,50.144-22.495,50.144-50.144C332.536,339.196,310.041,316.701,282.392,316.701z M282.392,401.155
			c-18.918,0-34.309-15.392-34.309-34.309c0-18.918,15.392-34.309,34.309-34.309c18.918,0,34.309,15.392,34.309,34.309
			C316.701,385.763,301.309,401.155,282.392,401.155z"/>
	</g>
</g>
<g>
	<g>
		<path d="M113.485,95.01c-16.713,0-32.271,8.292-41.618,22.183l-0.003,0.004c-5.576,8.301-8.523,17.968-8.523,27.957
			c0,27.649,22.495,50.144,50.144,50.144s50.144-22.495,50.144-50.144S141.134,95.01,113.485,95.01z M113.485,179.464
			c-18.918,0-34.309-15.392-34.309-34.309c0-6.83,2.016-13.443,5.829-19.121c6.399-9.51,17.046-15.188,28.48-15.188
			c18.918,0,34.309,15.392,34.309,34.309S132.402,179.464,113.485,179.464z"/>
	</g>
</g>
<g>
	<g>
		<rect x="34.309" y="95.01" width="21.113" height="15.835"/>
	</g>
</g>
<g>
	<g>
		<rect x="34.309" y="401.155" width="21.113" height="15.835"/>
	</g>
</g>
<g>
	<g>
		<rect x="340.454" y="95.01" width="21.113" height="15.835"/>
	</g>
</g>
<g>
	<g>
		<rect x="340.454" y="401.155" width="21.113" height="15.835"/>
	</g>
</g>
<g>
</g>
<g>
</g>
<g>
</g>
<g>
</g>
<g>
</g>
<g>
</g>
<g>
</g>
<g>
</g>
<g>
</g>
<g>
</g>
<g>
</g>
<g>
</g>
<g>
</g>
<g>
</g>
<g>
</g>
</svg>
